<?xml version="1.0" standalone="no"?><!DOCTYPE svg PUBLIC "-//W3C//DTD SVG 1.1//EN" "http://www.w3.org/Graphics/SVG/1.1/DTD/svg11.dtd"><svg t="1743264091472" class="icon" viewBox="0 0 1024 1024" version="1.1" xmlns="http://www.w3.org/2000/svg" p-id="4660" xmlns:xlink="http://www.w3.org/1999/xlink" width="200" height="200"><path d="M1023.732726 511.629418q0 146.203431-0.061741 292.417152c-0.092612 47.108622-12.924515 90.553927-40.924201 128.627737-43.455595 59.179049-102.665514 90.306961-175.756939 90.656829q-293.27124 1.42005-586.54248 0.185224c-105.124877-0.277836-193.456116-70.549741-214.28352-169.438745a255.19743 255.19743 0 0 1-5.556718-51.759802q-0.565962-290.328237 0-580.635894c0.246965-82.414364 35.768801-146.491557 105.989255-190.286729C141.027455 9.919504 179.224748 0.380471 219.665308 0.35989c194.392526-0.102902 388.785052-0.92612 583.167288 0.329287 95.699036 0.607123 164.303926 46.54266 204.034461 133.999231 12.605518 27.783591 16.89654 57.501743 16.89654 87.85789q-0.01029 144.556996-0.030871 289.08312zM378.072939 317.555889c0.92612-10.187317 2.130075-19.602867 2.572554-29.049288 1.39947-29.666701-12.348263-46.141342-39.442409-45.503348-4.774662 0.102902-10.866471 6.400516-13.778603 11.319241-6.966478 11.844042-9.683096 27.351402-18.964874 36.427375-25.159585 24.634784-28.524487 52.315473-18.296009 83.64919 6.174131 18.913422 17.740337 22.998639 36.015766 15.188363a316.197848 316.197848 0 0 1 43.774592-15.054591c11.494175-3.015034 25.550614-1.728757 28.133458 11.319241 1.636145 8.324787-4.846693 19.901283-10.753278 27.690979-9.261197 12.183619-21.064078 22.432677-31.899679 33.432922a86.273196 86.273196 0 0 1-9.127424 8.335077c-11.041405 8.386528-22.638482 16.135063-33.299149 24.92291-22.525289 18.522394-43.496755 39.102832-67.256871 55.803858-21.424236 15.03401-45.863506 24.44956-73.245778 26.095995-8.47914 0.514511-18.059334 9.261197-24.161434 16.731896-11.535335 14.07702-20.333473 30.366436-31.395458 44.885935-7.429538 9.744837-10.053544 28.123168-1.84195 36.118668 10.598926 10.290219 22.123971 9.508162 33.402051 0a94.670014 94.670014 0 0 1 13.377285-8.849588c50.226559-29.430026 101.97607-56.596204 150.329808-88.804589 47.551102-31.704165 92.303264-67.915445 117.123272-122.350704 1.471501-3.231129 5.567008-5.865425 9.055393-7.470699 15.939549-7.357507 28.287812-26.919213 27.25879-44.062717-0.627703-10.022673-5.361204-12.914225-14.035859-7.542731-3.231129 1.996302-5.834554 5.001046-9.641935 8.345368-4.064636-14.58124 4.280731-17.925561 13.943247-21.475687 21.732942-7.98521 33.957723-31.220524 26.168027-49.701757a354.590655 354.590655 0 0 0-16.567253-33.463792c-5.752232-10.403411-13.747733-10.784149-21.60946-2.366751-3.601577 3.858832-6.1021 8.829008-8.695235 13.511058-16.556962 29.851925-21.856425 32.043742-57.141585 21.918166z m140.142491 260.517473c-10.660667 5.145109-20.487826 7.614762-26.044544 13.850635-2.140366 2.407911 4.291021 14.272534 8.777557 20.405504 12.286521 16.793637 10.207897 38.98964-6.235873 54.713094-17.030312 16.279126-17.946142 21.506558-6.657771 41.706257 3.488384 6.235873 6.637191 13.078868 11.566206 18.018174 24.171724 24.274626 16.526092 48.261127 0.329287 72.432851-4.959886 7.408958-10.012383 14.756174-15.332427 21.907876-12.080717 16.268836-26.003383 31.436619-36.128958 48.816799-13.61396 23.389668-24.789137 48.250837-36.015767 72.916491a56.812299 56.812299 0 0 0-4.754081 24.223176c0.288126 11.864622 14.0976 20.117378 23.050091 13.809473 14.488628-10.207897 29.234512-20.69363 41.418131-33.412341 33.679887-35.151388 66.371912-71.259766 98.889004-107.491627 30.407597-33.885691 45.554799-75.818333-8.232175-106.297961-13.449316-7.635342-25.725547-19.047195-11.319241-37.10653 2.058044-2.531394 3.28258-7.203153 2.469653-10.238768-3.838252-14.406307 4.610018-22.751674 13.047997-32.270126 16.268836-18.32688 15.260395-39.709955-4.496825-54.280905-12.862774-9.508162-29.111029-14.478338-44.330264-21.702072z m85.480849-185.223941c-0.318997 0.843798-0.648284 1.677306-0.977571 2.521104-9.467001 0.92612-19.129517 1.029022-28.318682 3.138516-4.908434 1.142214-11.916074 5.278882-12.67755 9.117134-0.843798 4.301312 3.087066 11.185468 7.02822 14.509209 13.62425 11.545626 29.018417 21.074368 42.189897 33.103635 39.277766 36.015766 86.293776 54.651353 137.888934 62.369017 29.954827 4.476245 61.165061 2.747488 90.265801 9.981512 24.593623 6.11239 44.340553 3.910283 63.521521-10.989954 9.86832-7.666213 20.508406-14.807625 28.627389-24.089402 5.145109-5.916876 9.713967-16.011581 8.232175-22.906028-1.029022-4.918725-12.132168-9.559613-19.407353-11.010534-41.160876-8.232175-83.690351-5.700781-124.779194-17.966722-44.999127-13.428736-91.469756-21.856425-137.189199-32.87725-18.265139-4.373343-36.273022-9.86832-54.404388-14.869366z m-29.841635-238.733079c11.782301 18.687038 23.111832 23.410248 39.740826 18.069624 30.263534-9.713967 51.70835-52.860855 39.47328-82.002755-3.087066-7.203153-11.319241-16.783347-17.493373-17.071473-7.625052-0.349867-16.165934 7.203153-23.389667 12.636389-11.566206 8.643784-20.992047 22.010778-33.782789 26.754569-23.605762 8.726106-48.981442 12.636389-75.293532 18.954583 2.757779-10.598926 5.515557-19.551416 7.398667-28.67884 5.392075-26.178317-7.758825-46.552951-33.906271-51.451094-9.261197-1.718467-19.016325-1.193665-28.524487-0.967281-9.343519 0.216095-10.547474 5.515557-10.465153 14.406306 0.102902 13.222931-1.080473 27.145598-5.289172 39.555602-4.918725 14.478338-14.632691 27.2485-20.528987 41.479873-7.203153 17.266987-13.840344 38.07381 0.442479 52.222861 13.963827 13.881505 33.052183 7.830857 49.598856-2.387331 5.772813-3.570706 13.469897-5.268592 20.374633-5.546428 28.308392-1.131924 53.817845-8.407109 74.902504-28.617099 3.920573-3.683898 10.537184-4.69234 16.752476-7.336926z m30.294405 108.047298c-8.149853-15.702874-12.883354-28.411295-20.961176-38.413387-2.79894-3.467804-19.067776-2.593135-20.467246 0.391028-12.276231 26.198897-35.305741 48.940281-28.1952 82.023336 1.975722 9.189166 0 19.314741 2.397621 28.318682 2.222687 8.232175 7.007639 21.177271 12.348263 22.06223 11.164888 1.86253 29.15219 1.358309 34.225268-5.577299 19.983605-27.320531 49.670887-36.159829 78.287986-47.00572 7.933759-3.004744 19.788091-1.111344 27.876203 2.696037 26.065125 12.255651 52.068508 0.46306 53.241593-28.051137 0.854088-20.930305-3.622157-42.117866-6.174131-63.140783-1.492082-12.523196-8.355658-18.285719-21.722653-18.244558-14.221083 0-20.343763 6.709223-22.638481 19.73664-1.543533 8.746686-3.087066 18.018173-7.203154 25.622645-3.251709 5.968327-10.053544 13.037707-16.104192 13.912376-22.700223 3.27229-45.781184 4.198409-64.900411 5.690491z m-54.538161 220.704616c-1.636145-4.507116-2.397621-15.178073-6.781254-16.9377-5.525848-2.222687-14.231373 2.058044-21.043498 4.867274-4.22928 1.708176-7.54273 5.711072-11.185468 8.787847-14.056439 11.844042-27.639528 24.305497-42.251639 35.429223-13.325834 10.146156-20.817113 29.275673-15.641132 45.11232 3.704479 11.319241 10.928213 18.265139 23.554311 18.121076 19.551416-0.236675 56.832879-26.384121 62.327856-45.276964 4.486535-15.280975 6.966478-31.189654 11.020824-50.082495z" fill="#FF0000" p-id="4661"></path></svg>