<?xml version="1.0" ?>
<!-- Uploaded to: SVG Repo, www.svgrepo.com, Generator: SVG Repo Mixer Tools -->
<svg width="800px" height="800px" viewBox="0 0 50 50" id="Message_And_Communication_Icons" version="1.1" xml:space="preserve" xmlns="http://www.w3.org/2000/svg" xmlns:xlink="http://www.w3.org/1999/xlink">
<g>
<g>
<g>
<g>
<path d="M35.1,25.1l-0.8-0.9c1.4-1.2,3.2-1.8,5-1.8v1.2C37.9,23.6,36.3,24.2,35.1,25.1z" style="fill:#0D5FC3;"/>
</g>
</g>
<g>
<g>
<path d="M33.8,28.1l-1.1-0.5c0.3-0.6,0.6-1.2,1.1-1.8l0.9,0.8C34.4,27.1,34.1,27.6,33.8,28.1z" style="fill:#4DE0F9;"/>
</g>
</g>
<g>
<g>
<path d="M33.2,27.6l-1.1-0.5c0.3-0.6,0.6-1.2,1.1-1.8l0.9,0.8C33.8,26.6,33.5,27.1,33.2,27.6z" style="fill:#0D5FC3;"/>
</g>
</g>
<g>
<g>
<g>
<path d="M36.7,22.2c0.3,0,0.6-0.1,1-0.1c0.2,0,0.5,0,0.7,0c-1.1-1.6-2.5-2.8-4.2-3.6       C35.2,19.6,36.1,20.8,36.7,22.2z" style="fill:#4DE0F9;"/>
</g>
</g>
<g>
<g>
<path d="M42.9,24.4c1.3,1.3,2,3.1,2,5.1c0,1-0.2,1.9-0.5,2.8H28.6c0,0.1,0,0.2,0,0.4       c0,0.5,0.1,1,0.2,1.4h18.3c0.3-0.9,0.5-1.8,0.5-2.8C47.6,28.1,45.7,25.5,42.9,24.4z" style="fill:#4DE0F9;"/>
</g>
</g>
</g>
<g>
<g>
<path d="M46.6,33.7h-34l-0.1-0.5c-0.1-0.5-0.2-1-0.2-1.6c0-3.3,2.4-6,5.6-6.5c1-5.2,5.6-9.1,10.9-9.1      c4.3,0,8.2,2.5,10,6.3c0.2,0,0.4,0,0.6,0c4.4,0,7.9,3.6,7.9,7.9c0,1-0.2,2-0.6,3L46.6,33.7z M13.5,32.5h32.2      c0.2-0.7,0.4-1.4,0.4-2.2c0-3.7-3-6.7-6.7-6.7c-0.3,0-0.6,0-0.9,0.1l-0.5,0.1l-0.2-0.4c-1.6-3.7-5.1-6-9.1-6      c-4.9,0-9.1,3.7-9.8,8.5L19,26.3l-0.5,0c-2.8,0.2-5,2.6-5,5.4C13.5,31.9,13.5,32.2,13.5,32.5z" style="fill:#0D5FC3;"/>
</g>
</g>
</g>
<g>
<g>
<rect height="1.2" style="fill:#0D5FC3;" width="11.3" x="4.5" y="32.5"/>
</g>
</g>
<g>
<g>
<rect height="1.2" style="fill:#0D5FC3;" width="4.8" x="8.3" y="29.2"/>
</g>
</g>
<g>
<g>
<rect height="1.2" style="fill:#0D5FC3;" width="3.6" x="12.2" y="25.9"/>
</g>
</g>
<g>
<g>
<rect height="1.2" style="fill:#0D5FC3;" width="2.7" x="8.3" y="22.4"/>
</g>
</g>
</g>
</svg>