<?xml version="1.0" standalone="no"?><!DOCTYPE svg PUBLIC "-//W3C//DTD SVG 1.1//EN" "http://www.w3.org/Graphics/SVG/1.1/DTD/svg11.dtd"><svg t="1743265254530" class="icon" viewBox="0 0 1024 1024" version="1.1" xmlns="http://www.w3.org/2000/svg" p-id="50443" xmlns:xlink="http://www.w3.org/1999/xlink" width="200" height="200"><path d="M80.6656 203.73504c0-68.71552 48.70656-124.42624 108.78976-124.42624h181.30432c60.0832 0 108.78464 55.71072 108.78464 124.42624v269.57824H189.45024c-60.0832 0-108.78976-55.70048-108.78976-124.43136V203.73504z m471.3984 0c0-68.71552 48.70144-124.42624 108.78464-124.42624h181.30432c60.07296 0 108.78464 55.71072 108.78464 124.42624v145.14688c0 68.72576-48.71168 124.43136-108.78464 124.43136h-290.08896V203.73504z m-471.3984 476.99456c0-68.72576 48.70656-124.43136 108.78976-124.43136h290.08896v269.60384c0 68.72064-48.70144 124.42624-108.78464 124.42624H189.45024c-60.0832 0-108.78976-55.7056-108.78976-124.42624v-145.17248z m872.50944-110.19776l-94.80192 382.79168c-0.896 4.1728-3.31264 7.3216-6.38976 9.16992-0.39424 0.83968-0.63488 1.73056-1.19296 2.47808-4.5056 6.05184-12.44672 6.76864-17.75616 1.60256l-102.1952-99.63008c-5.2992-5.15072-5.91872-14.24896-1.41312-20.3008a12.0832 12.0832 0 0 1 5.80608-4.18816c0.73216-1.7152 1.69472-3.584 3.24096-5.86752l83.33312-124.72832-100.2496 105.74336c-3.01056 2.42688-5.71392 3.70176-8.15616 4.03968-0.01536 0.0512 0.01536 0.10752 0 0.14336L686.336 940.032c-1.408 6.1184-7.99744 9.4464-14.72 7.424-6.72256-2.01728-11.0336-8.59648-9.64096-14.73024l25.37472-110.87872h-121.30304c-6.9632 0-12.5952-6.44608-12.5952-14.39744-3.11808-6.9632 0.36864-16.42496 8.73472-22.38976l369.408-228.44416c0.54272-0.19456 0.9728-0.2816 1.50016-0.4608 2.9696-2.7904 6.85568-4.1728 10.86976-3.0464 1.1264 0.31232 2.04288 1.00864 3.0208 1.61792 2.21184 0.73216 4.11648 1.98144 5.33504 4.52096 1.05984 2.23744 1.2288 4.76672 1.00352 7.35744 0.03584 1.31584 0.14336 2.59072-0.13824 3.92704h-0.01024z m-38.2976 49.07008l-0.15872 0.23552 0.14336-0.15872 0.01536-0.0768z" fill="#1296db" p-id="50444"></path></svg>